<svg width="163" height="100" viewBox="0 0 163 100" fill="none" xmlns="http://www.w3.org/2000/svg">
<path fill-rule="evenodd" clip-rule="evenodd" d="M44.8785 42.2867L44.8401 36.6398C44.3207 36.8239 43.0897 38.4402 42.7627 38.8495C38.8003 43.6575 31.1447 51.2276 25.0664 50.9821V54.1943C28.548 56.588 29.529 62.6032 27.2208 65.5084C24.8741 68.4547 24.8356 65.2221 25.1241 73.9583H71.8846L72 26.0826L50.5914 26.0417C49.5527 26.0826 49.6488 25.9803 49.418 26.9828C48.0139 32.8752 45.6672 34.2664 44.8016 36.6194H70.2496L70.2304 43.9439H61.9593L61.94 67.2271C59.3433 67.534 55.9772 67.3703 53.265 67.3499V44.0667C51.0338 43.6779 47.5138 44.128 45.7441 43.9848C44.5515 43.8825 44.917 43.6575 44.8978 42.2662L44.8785 42.2867Z" fill="#0EDC53"/>
<path fill-rule="evenodd" clip-rule="evenodd" d="M112.65 36.6238H121.701C122.543 37.6882 124.896 43.399 125.642 45.0363C126.905 47.7792 128.092 50.8085 129.393 53.3875C130.426 52.3027 132.569 46.7148 133.392 44.9135C134.654 42.1094 135.898 39.0801 137.18 36.6238L146.307 36.6853V67.3266H138.787L138.73 49.6008L132.378 64.3177H127.02C125.891 64.0106 121.873 51.8729 120.189 49.7851V67.3266L112.612 67.1832L112.65 36.6034V36.6238ZM110.201 26.0622C109.914 27.4539 109.952 72.7917 110.201 73.9583H150L149.885 26.0417H110.201V26.0622Z" fill="#0EDC53"/>
<path fill-rule="evenodd" clip-rule="evenodd" d="M104.558 67.318L94.1878 67.3795C93.4082 65.617 91.8488 63.4035 90.8742 61.7845C90.0555 60.3908 88.1258 56.8657 87.3072 56.2919C86.8198 56.8043 84.3444 59.653 84.2274 60.1858C83.9155 61.6 84.3249 65.494 84.1494 67.3591H75.534L75.495 36.6579L81.8689 36.5964C83.3893 36.5964 84.1689 36.1455 84.2664 37.5597C84.4418 39.9985 83.9545 45.1837 84.2859 48.4834C84.9876 48.135 88.3597 43.7081 89.1784 42.6833C90.7572 40.7159 92.6285 38.5025 93.9539 36.617H103.895L98.1642 43.5647C97.1506 44.6919 96.254 45.7576 95.2209 46.9668C93.6226 48.8523 93.0573 48.6269 94.6556 51.0657L102.121 63.1781C102.686 64.1413 104.382 66.4777 104.538 67.3385L104.558 67.318ZM73 73.8969L106 73.9583V26.0622L73 26.0417V73.8969Z" fill="#0EDC53"/>
<path fill-rule="evenodd" clip-rule="evenodd" d="M17.0108 42.9828L28.0508 36.2622C33.5517 32.8817 31.635 34.3999 36.1392 26.3635L49 3.125L19.9817 21.06L3 51.7074L13.4267 45.3309C13.3692 48.9746 13.4458 49.9463 15.1708 53.2458C16.4358 55.6952 13.695 57.7397 18.2758 57.8408C20.0008 61.9501 19.79 62.193 18.5633 66.6667C20.9208 66.0796 24.2558 64.9258 24.7542 62.2133C25.4442 58.4077 23.4317 55.8166 21.17 54.845C21.285 53.8126 21.2083 53.0029 20.9783 52.1932C19.5408 51.3834 19.56 51.6264 17.72 51.8896C16.915 49.4604 16.1675 49.6426 16.1292 45.8977C16.0908 40.2702 20.4033 33.0436 23.7575 28.6713C24.4283 27.8008 24.9267 27.0114 25.6358 26.6267C25.1758 27.6389 24.9842 27.6389 24.3133 28.5093C21.5342 32.0113 17.3942 38.7723 17.0108 43.0232V42.9828Z" fill="#0EDC53"/>
<path fill-rule="evenodd" clip-rule="evenodd" d="M19 43.5919C23.9486 48.2147 23.6769 50.5766 29.0913 47.71C32.8367 45.7317 36.0388 42.7036 38.5228 40.1601C40.968 37.6368 43.9177 34.205 45.7808 30.3494C47.0034 27.826 47.7408 25.9688 45.839 24.0712C44.7716 23.0013 42.6952 20.5184 41.5696 19.7917C41.2397 20.7606 33.7876 33.983 33.186 34.6087C32.2933 35.5172 27.5582 38.1819 26.1609 39.0499C25.2488 39.6151 19.718 42.7238 19.0194 43.5919H19Z" fill="#0EDC53"/>
<path fill-rule="evenodd" clip-rule="evenodd" d="M125.607 82.2984C126.495 83.8709 129.717 91.3911 130.73 91.9153H133.684L138.497 82.2782V93.75H143V75L137.443 75.0605L132.031 85.6048L129.222 80.383C128.457 78.8911 127.094 76.4516 126.619 75H121V93.7298H125.503L125.607 82.258V82.2984Z" fill="#0EDC53"/>
<path fill-rule="evenodd" clip-rule="evenodd" d="M88.6888 79.0804C92.0542 79.0804 96.2325 78.7406 96.2136 84.516C96.2136 90.0917 91.8084 89.672 88.6888 89.692V79.0804ZM84.0189 93.6688C87.7813 93.6688 92.9049 94.1683 96.0623 92.6896C102.755 89.592 102.585 79.0204 95.9111 75.9429C93.0373 74.604 87.5166 75.0835 84 75.0835V93.6488L84.0189 93.6688Z" fill="#0EDC53"/>
<path fill-rule="evenodd" clip-rule="evenodd" d="M56.2 82.7301C57.1687 81.3375 58.2324 80.3081 59.2961 78.9357C60.3598 77.543 61.5184 76.6147 62.4682 75H57.0548C56.314 76.4128 54.9274 77.6844 53.8827 79.0366C52.857 80.3889 51.6793 81.62 50.7106 82.8714L50.6726 75H46V93.75H50.6916C50.6916 89.5116 50.0458 89.2896 52.8 86.7061C53.6737 87.352 56.124 91.873 57.0168 93.0234C57.7196 93.9317 56.9788 93.3867 57.8525 93.75H63L56.238 82.7099L56.2 82.7301Z" fill="#0EDC53"/>
<path fill-rule="evenodd" clip-rule="evenodd" d="M118.733 86.3594V82.3097H109.846L109.886 78.8472H119.678V75L105 75.1418V93.75H120V93.426L119.98 89.8016L109.886 89.6801L109.926 86.3594H118.733Z" fill="#0EDC53"/>
<path fill-rule="evenodd" clip-rule="evenodd" d="M73.0096 80.2621L75.2854 86.6532H70.541L73.0289 80.2621H73.0096ZM67.4937 93.7298C68.4195 93.2056 68.3809 91.8548 69.1524 90.4233H76.7705L77.947 93.75L83 93.5887L75.6326 75H70.6567L63 93.7298H67.4937Z" fill="#0EDC53"/>
<path fill-rule="evenodd" clip-rule="evenodd" d="M33.2799 80.3081L35.6274 86.6456H31.1158L33.2799 80.3081ZM28.2548 93.75C29.0985 93.1445 29.3369 91.5097 29.7403 90.44H37.0212L38.14 93.75H43L35.9392 75H31.2075L24 93.75H28.2548Z" fill="#0EDC53"/>
<path fill-rule="evenodd" clip-rule="evenodd" d="M145 93.75L150 93.5819V80.2457L145.244 80.2083H145V93.75Z" fill="#0EDC53"/>
<path fill-rule="evenodd" clip-rule="evenodd" d="M145 79.1322L149.106 79.1667L150 78.8568V75.2066L149.106 75H145V79.1322Z" fill="#0EDC53"/>
</svg>
