<svg width="435" height="100" viewBox="0 0 435 100" fill="none" xmlns="http://www.w3.org/2000/svg">
<g clip-path="url(#clip0_1_18)">
<mask id="mask0_1_18" style="mask-type:luminance" maskUnits="userSpaceOnUse" x="0" y="0" width="435" height="100">
<path d="M434.848 0H0V100H434.848V0Z" fill="white"/>
</mask>
<g mask="url(#mask0_1_18)">
<path d="M19.9769 83.1111V65.0356L32.7478 83.1111H48.7481L32.0873 62.232L46.6931 43.4187H32.2341L19.9769 59.5022V30.1387H7.42625V83.1111H19.9769ZM62.113 34.1964C62.113 29.9911 58.8102 26.9662 54.0395 26.9662C49.2688 26.9662 45.9659 29.9911 45.9659 34.1964C45.9659 38.328 49.2688 41.3529 54.0395 41.3529C58.8102 41.3529 62.113 38.328 62.113 34.1964ZM60.4249 83.1111V43.4187H47.8742V83.1111H60.4249ZM90.0185 70.7164C88.624 71.6018 86.6423 72.1182 84.5872 72.1182C81.1376 72.1182 79.5229 70.3476 79.5229 66.5111V54.4116H90.3121V43.4187H79.5229V31.7618H66.9722V43.4187H59.6326V54.4116H66.9722V69.4622C66.9722 78.5369 72.1833 83.8489 81.0642 83.8489C84.5872 83.8489 87.2295 83.2587 90.0185 81.7093V70.7164ZM113.902 83.1111H124.03V58.6169C124.03 48.5831 117.645 42.6809 106.782 42.6809C97.0207 42.6809 90.1949 48.7307 89.461 57.9529H100.764C101.204 54.4853 103.259 52.5671 106.709 52.5671C110.232 52.5671 112.214 54.4853 112.214 57.9529V59.8711C110.526 59.576 108.544 59.4284 106.415 59.4284C95.1124 59.4284 88.8738 63.6338 88.8738 71.3804C88.8738 78.9058 94.3785 83.8489 102.599 83.8489C107.663 83.8489 111.113 82.4471 113.902 79.2747V83.1111ZM100.691 71.0116C100.691 68.2818 102.966 66.88 107.223 66.88C108.837 66.88 110.305 67.0276 112.214 67.3964V69.9049C112.214 73.1511 109.718 75.1431 105.535 75.1431C102.452 75.1431 100.691 73.5938 100.691 71.0116ZM167.596 63.2649C167.596 51.9031 160.624 42.6809 149.981 42.6809C145.357 42.6809 141.467 44.5253 138.238 47.9191V43.4187H126.715V97.3502H139.265V79.4222C142.348 82.3733 145.871 83.8489 149.981 83.8489C160.624 83.8489 167.596 74.7742 167.596 63.2649ZM154.532 63.2649C154.532 69.6098 150.789 72.4871 146.972 72.4871C143.155 72.4871 139.412 69.6836 139.412 63.3387C139.412 57.0676 143.082 54.0427 146.972 54.0427C150.789 54.0427 154.532 57.0676 154.532 63.2649ZM180.864 83.1111V30.1387H168.166V83.1111H180.864ZM207.077 83.1111H217.206V58.6169C217.206 48.5831 210.821 42.6809 199.958 42.6809C190.196 42.6809 183.371 48.7307 182.637 57.9529H193.94C194.38 54.4853 196.435 52.5671 199.885 52.5671C203.408 52.5671 205.389 54.4853 205.389 57.9529V59.8711C203.701 59.576 201.72 59.4284 199.591 59.4284C188.288 59.4284 182.049 63.6338 182.049 71.3804C182.049 78.9058 187.554 83.8489 195.774 83.8489C200.839 83.8489 204.288 82.4471 207.077 79.2747V83.1111ZM193.866 71.0116C193.866 68.2818 196.141 66.88 200.398 66.88C202.013 66.88 203.481 67.0276 205.389 67.3964V69.9049C205.389 73.1511 202.894 75.1431 198.71 75.1431C195.628 75.1431 193.866 73.5938 193.866 71.0116ZM232.442 64.8142C232.442 56.0347 238.092 55.3707 246.973 56.256V43.1236C240.661 43.1236 234.422 45.7796 231.414 50.4276V43.4187H219.89V83.1111H232.442V64.8142ZM264.263 98.088C276.373 98.088 283.861 91.5218 283.861 80.824V43.4187H272.336V47.4764C269.328 44.1564 265.731 42.6809 260.741 42.6809C251.051 42.6809 244.152 50.6489 244.152 61.8631C244.152 72.7084 251.64 81.0453 261.254 81.0453C265.512 81.0453 269.255 79.2747 271.308 76.3236V80.9716C271.308 85.7671 268.888 88.2756 264.19 88.2756C260.299 88.2756 258.024 86.3573 257.584 82.816H245.401C245.841 92.0382 253.326 98.088 264.263 98.088ZM256.85 61.9369C256.85 56.92 259.565 53.6738 263.823 53.6738C268.227 53.6738 271.162 56.92 271.162 61.8631C271.162 66.7324 268.227 70.0524 263.823 70.0524C259.565 70.0524 256.85 66.88 256.85 61.9369ZM304.787 83.7751C314.623 83.7751 321.596 78.6844 324.019 69.6098H311.466C310.365 72.4871 308.017 73.9627 304.493 73.9627C300.457 73.9627 298.109 71.4542 297.448 66.4373H324.237C326.512 53.3787 317.78 42.6809 304.714 42.6809C292.971 42.6809 284.458 51.3129 284.458 63.1911C284.458 75.512 292.604 83.7751 304.787 83.7751ZM304.42 51.9769C308.163 51.9769 310.659 54.5591 310.807 58.5431H297.596C298.476 54.1164 300.678 51.9769 304.42 51.9769ZM337.875 83.1111V30.1387H325.179V83.1111H337.875ZM375.979 69.6098C375.979 63.9289 371.942 60.1662 364.311 58.7644L355.943 57.2151C353.448 56.7724 352.201 56.256 352.201 54.5591C352.201 52.7884 354.109 51.9769 357.044 51.9769C360.493 51.9769 362.916 53.8951 363.21 57.0676H375.245C374.511 48.2142 367.32 42.6809 356.971 42.6809C346.621 42.6809 340.163 48.0667 340.163 55.7396C340.163 62.1582 344.567 66.1422 351.467 67.3964L359.246 68.7982C361.961 69.3147 363.283 70.0524 363.283 71.8231C363.283 73.8889 360.714 74.5529 357.851 74.5529C353.521 74.5529 350.512 72.4133 350.512 69.0933H338.474C339.281 78.2418 345.741 83.8489 357.63 83.8489C369.522 83.8489 375.979 78.3893 375.979 69.6098ZM391.143 34.1964C391.143 29.9911 387.84 26.9662 383.069 26.9662C378.298 26.9662 374.995 29.9911 374.995 34.1964C374.995 38.328 378.298 41.3529 383.069 41.3529C387.84 41.3529 391.143 38.328 391.143 34.1964ZM389.454 83.1111V43.4187H376.903V83.1111H389.454ZM405.101 62.232C405.101 56.256 407.891 54.0427 410.973 54.0427C414.791 54.0427 416.553 56.7724 416.553 61.7893V83.1111H429.103V57.584C429.103 47.9191 423.598 42.6809 415.819 42.6809C410.827 42.6809 407.157 44.7467 404.075 48.2142V43.4187H392.551V83.1111H405.101V62.232Z" fill="#0EDC53"/>
<path d="M117.075 29.3349C117.075 29.3349 109.236 15.724 94.7156 11.6048C80.1952 7.57527 69.238 8.82891 63.4477 4.88889L71.7323 18.2312C72.1778 18.9476 72.8903 19.3953 73.6921 19.4849C79.4825 20.2012 103.268 23.9622 112.71 34.7078C112.71 37.1253 114.67 39.0953 117.075 39.0953C119.481 39.0953 121.44 37.1253 121.44 34.7078C130.883 23.9622 154.668 20.2908 160.458 19.4849C161.26 19.3953 161.973 18.9476 162.418 18.2312L170.703 4.88889C164.913 8.82891 153.955 7.48573 139.435 11.6048C125.004 15.724 117.075 29.3349 117.075 29.3349Z" fill="#0EDC53"/>
</g>
</g>
<defs>
<clipPath id="clip0_1_18">
<rect width="434.848" height="100" fill="white"/>
</clipPath>
</defs>
</svg>
