<svg width="267" height="100" viewBox="0 0 267 100" fill="none" xmlns="http://www.w3.org/2000/svg">
<path d="M6.80355 6.98316C6.74235 7.57529 6.64036 9.90301 6.57916 12.1491C6.51796 14.3951 6.37514 17.9683 6.27315 20.1123C6.17114 22.2358 6.02834 25.4824 5.96714 27.2997L5.86514 30.6279H6.74235H7.59917L8.08878 29.2394C10.19 23.2568 14.6374 17.1925 19.6763 13.3946C23.94 10.1889 28.326 8.41246 33.059 7.96324C35.303 7.75906 35.609 7.82031 35.7519 8.4533C35.8131 8.6779 35.8334 27.953 35.8131 51.2507L35.7519 93.6191L31.6106 93.6804L27.4692 93.7213L27.5304 94.7014L27.5916 95.6611L45.5033 95.7224L63.3944 95.7631V95.2118C63.3944 94.8851 63.3332 94.436 63.272 94.1704C63.1496 93.7213 63.1293 93.7213 59.09 93.7213H55.0304V50.7401V7.75906L56.5195 7.88157C63.4353 8.41246 69.2698 11.1485 74.3088 16.2124C77.8176 19.7447 80.1433 23.3588 82.1017 28.2185L83.0606 30.6279H83.9581H84.8558L84.7334 28.5248C84.6722 27.3813 84.5089 24.0123 84.407 21.0311C84.2846 18.0501 84.101 13.6192 83.999 11.1894C83.8766 8.75958 83.795 6.57479 83.795 6.35018V5.92139H45.3605H6.90556L6.80355 6.98316ZM83.5297 11.026C83.6521 13.5579 83.8562 18.6014 83.9786 22.2562C84.1214 25.9112 84.2641 29.1374 84.3253 29.4437C84.4274 29.9541 84.3865 30.0153 83.8562 30.0153C83.3461 30.0153 83.2442 29.9132 82.9994 29.1169C82.5505 27.5651 80.1636 22.8688 78.7969 20.827C75.8795 16.4574 71.7587 12.6595 67.4949 10.4543C63.721 8.49413 60.1916 7.53446 56.5604 7.47319L54.5202 7.45278L54.459 50.781L54.4183 94.1297H58.6004H62.7824V94.7423V95.3548H45.9929C36.7515 95.3548 28.8973 95.2936 28.5505 95.2323C28.0405 95.1302 27.8976 94.9873 27.8976 94.6198V94.1297H32.0798H36.2619V50.6994V7.28944L34.181 7.41195C26.7756 7.84074 19.9823 11.4344 14.1681 17.9888C11.9037 20.5207 8.8232 25.7887 7.80319 28.8311C7.45637 29.8928 7.35437 30.0153 6.86475 30.0153C6.31394 30.0153 6.31394 30.0153 6.37514 28.729C6.41595 28.0348 6.51796 26.0337 6.57916 24.2982C6.90556 15.3139 7.08916 10.4952 7.21157 8.51456L7.33397 6.32976L45.3197 6.37061L83.2849 6.43185L83.5297 11.026Z" fill="#0EDC53" stroke="#0EDC53" stroke-width="5"/>
<path d="M6.06913 34.2828C6.06913 35.2629 6.23234 35.3242 8.9864 35.3242H10.9652V64.7269V94.1297H8.51719H6.06913V94.8239C6.06913 95.273 6.19153 95.5589 6.41594 95.6406C6.66075 95.7427 13.4133 95.8243 17.9626 95.7631C18.1871 95.7631 18.3095 95.5998 18.3095 95.273C18.3095 94.191 18.2074 94.1297 16.0654 94.1297C14.9638 94.1297 13.9233 94.0684 13.7397 94.0072C13.4541 93.8847 13.4133 91.271 13.4133 66.4216C13.4133 46.9831 13.4745 38.979 13.6377 39.0403C13.8417 39.1015 14.1273 39.6121 16.657 44.4104C18.0442 47.024 19.1051 49.0249 20.3495 51.3527C21.0839 52.7208 21.8592 54.2113 24.2255 58.7034C24.8172 59.8265 25.5925 61.2966 25.9597 61.9704C26.6736 63.3181 27.7752 65.3802 29.7133 69.0352L30.9577 71.4242L30.9985 76.1818C31.0394 80.0612 31.0597 80.5513 31.1821 78.8158C31.2433 77.6314 31.2842 67.1363 31.2637 55.4977C31.223 35.3649 31.2025 34.2828 30.8558 33.8948C30.4886 33.4865 30.2233 33.4865 18.2686 33.4865H6.06913V34.2828Z" fill="#0EDC53"/>
<path d="M72.9827 34.3032C72.9827 34.7524 73.0031 35.1404 73.0439 35.1404C73.0643 35.1608 74.1456 35.222 75.4308 35.3037L77.7768 35.4262L77.838 56.4982C77.8585 68.096 77.7973 77.5906 77.7156 77.5906C77.6137 77.5906 75.6959 74.0378 73.4315 69.6681C71.167 65.319 68.6986 60.6228 67.9642 59.2139C67.2298 57.805 65.8425 55.1505 64.8838 53.2925C63.9249 51.4344 62.7417 49.1883 62.2521 48.2899C61.7829 47.3916 61.0893 45.9622 60.7628 45.1251C60.1508 43.6344 60.1304 43.4712 60.0896 40.1225C60.0692 37.1413 60.0284 37.4476 59.9265 42.3686C59.6205 54.4972 59.7632 83.0015 60.1101 82.0011C60.2732 81.5517 60.7221 82.3277 64.8838 90.2501C65.6182 91.6589 66.5769 93.4354 67.0053 94.2317L67.7806 95.6611L74.064 95.7223L80.3269 95.7631L80.3678 65.6049L80.429 35.4262L82.8362 35.3649C85.1415 35.3037 85.223 35.3037 85.223 34.8545C85.223 34.6095 85.1618 34.2011 85.1006 33.9357L84.9782 33.4865H78.9805H72.9827V34.3032Z" fill="#0EDC53"/>
<path d="M150.16 51.0873C150.099 51.2302 150.038 59.9285 150.018 70.4032L149.956 89.4334H153.383H156.79L156.81 88.5555C156.81 88.0858 156.893 87.2894 156.954 86.8198L157.096 85.9215L157.811 86.881C161.055 91.2098 168.113 90.9852 172.071 86.4319C173.151 85.1864 174.6 82.2256 175.07 80.245C175.641 77.9173 175.599 72.7515 174.987 70.587C173.376 64.8902 169.785 62.0112 164.685 62.338C162.441 62.4809 160.749 63.2159 159.136 64.7473L158.014 65.8091V58.3155V50.8423H154.139C151.221 50.8423 150.222 50.9035 150.16 51.0873ZM164.441 69.0352C166.399 69.9541 167.398 72.3227 167.398 76.0593C167.398 80.9392 165.685 83.5528 162.462 83.5528C160.81 83.5528 159.626 82.8178 158.749 81.266L158.117 80.1429V76.2634C158.117 72.5064 158.137 72.3431 158.646 71.2404C159.177 70.1175 160.054 69.2394 161.075 68.8311C161.951 68.4839 163.461 68.5861 164.441 69.0352Z" fill="#0EDC53"/>
<path d="M102.403 52.3736C100.465 52.7208 99.6285 53.0066 97.9964 53.8438C92.019 56.9475 90.5298 64.6248 94.9772 69.4844C96.5275 71.1792 98.0984 72.2205 101.934 74.0785C106.565 76.345 107.462 77.3456 107.156 79.9591C107.034 81.123 106.279 82.1236 105.035 82.7156C104.157 83.1649 103.79 83.2057 101.403 83.2057C98.5675 83.1853 97.4252 82.9606 94.7527 81.858L93.4063 81.3067L92.7739 84.2063C91.8559 88.2899 91.8354 87.9632 93.0391 88.4533C96.0788 89.6988 100.322 90.2501 103.688 89.8622C107.523 89.413 110.135 88.3104 112.236 86.2684C116.255 82.3277 116.398 75.6712 112.583 71.6283C110.849 69.8315 110.012 69.2802 105.177 67.0138C101.566 65.2986 100.485 64.2573 100.485 62.4808C100.485 61.2148 101.056 60.2553 102.219 59.5202C103.198 58.928 103.26 58.9076 105.871 58.928C108.319 58.928 108.707 58.9893 110.379 59.5609C111.399 59.9081 112.256 60.1735 112.277 60.1328C112.42 60.0102 113.929 53.8234 113.848 53.7416C113.807 53.7009 113.154 53.4354 112.399 53.1496C109.645 52.1695 105.402 51.8223 102.403 52.3736Z" fill="#0EDC53"/>
<path d="M186.902 62.4808C184.106 62.93 180.659 64.196 180.659 64.7882C180.659 65.0536 181.883 69.4844 181.986 69.5865C182.025 69.6274 182.393 69.4844 182.842 69.2599C185.739 67.7692 190.309 67.4222 191.879 68.5861C192.654 69.1374 193.308 70.2194 193.308 70.9341V71.5876L190.818 71.8121C188.064 72.0776 185.208 72.8127 183.638 73.6703C182.047 74.5279 180.333 76.2225 179.638 77.6723C178.414 80.1429 178.375 83.2465 179.557 85.6355C180.211 86.9831 181.903 88.6779 183.148 89.2292C186.412 90.6585 190.615 90.005 193.144 87.657L194.082 86.7585L194.204 87.3303C194.266 87.6366 194.368 88.2491 194.449 88.6574L194.572 89.4334H198.143H201.732L201.57 88.5554C201.487 88.0857 201.345 83.7366 201.264 78.9178C201.142 71.3833 201.059 69.9744 200.753 69.0148C200.224 67.3404 199.693 66.4216 198.652 65.2986C196.735 63.2363 194.674 62.4808 190.757 62.3787C189.308 62.338 187.555 62.3787 186.902 62.4808ZM193.511 79.0403C193.511 81.6335 193.267 82.3481 192.145 83.2874C190.003 85.0433 187.166 84.3491 186.576 81.8989C185.881 78.979 188.289 76.8759 192.451 76.7943L193.511 76.7738V79.0403Z" fill="#0EDC53"/>
<path d="M219.828 62.5625C218.237 62.9913 216.91 63.7672 215.666 64.9923C215.013 65.6458 214.442 66.1562 214.422 66.1153C214.381 66.0746 214.279 65.319 214.178 64.4207L214.014 62.7871L210.567 62.7259L207.118 62.685L207.24 66.1971C207.323 68.1368 207.384 74.1603 207.384 79.5712V89.4334H211.362H215.319L215.38 80.6942L215.441 71.9755L215.952 71.077C216.237 70.587 216.809 69.8928 217.238 69.5456C217.951 68.974 218.176 68.9127 219.419 68.9127C221.174 68.9127 221.725 69.2802 222.582 70.9545L223.194 72.1796L223.255 80.7963L223.336 89.4334H227.314H231.293L231.192 79.8775C231.13 71.6488 231.069 70.1787 230.763 69.1374C229.661 65.4008 227.825 63.3793 224.805 62.583C223.398 62.2155 221.113 62.1949 219.828 62.5625Z" fill="#0EDC53"/>
<path d="M244.003 62.4605C241.841 62.828 238.698 63.8081 237.902 64.3798C237.576 64.6248 237.596 64.7677 238.188 66.9729C238.556 68.2593 238.882 69.3824 238.923 69.464C238.984 69.5456 239.515 69.3824 240.106 69.1168C242.942 67.851 246.614 67.5242 248.429 68.341C249.552 68.8514 250.225 69.7906 250.225 70.8525V71.5876L247.736 71.8326C241.126 72.4655 237.168 74.9974 236.026 79.3262C235.598 80.8576 235.659 83.1037 236.169 84.5738C237.189 87.5957 239.331 89.3721 242.554 89.8825C245.268 90.2909 248.348 89.413 250.184 87.657C250.654 87.2078 251.041 86.8606 251.061 86.8606C251.082 86.881 251.183 87.4323 251.327 88.1061L251.55 89.3312L255.202 89.3925C258.63 89.4334 258.833 89.413 258.671 89.0862C258.588 88.8821 258.446 84.6758 258.385 79.7346C258.262 72.2818 258.181 70.5462 257.895 69.5253C256.896 65.9112 254.958 63.8694 251.449 62.7462C250.367 62.3992 245.513 62.2155 244.003 62.4605ZM250.612 78.8565C250.612 80.0203 250.49 81.266 250.367 81.6335C250.061 82.4298 249.185 83.4099 248.307 83.8591C247.369 84.3695 245.491 84.3288 244.778 83.7978C243.594 82.9403 243.146 81.0413 243.778 79.5712C244.451 77.9173 246.634 76.8759 249.572 76.7943L250.632 76.7738L250.612 78.8565Z" fill="#0EDC53"/>
<path d="M120.335 72.3227C120.416 82.8994 120.457 83.2466 121.702 85.758C123.273 88.8617 126.639 90.4544 130.392 89.8825C132.514 89.5559 134.003 88.7799 135.513 87.2894L136.778 86.0234L136.9 86.9628C136.961 87.4732 137.063 88.2492 137.124 88.6574L137.247 89.4334H140.633H144.04L143.979 76.3247C143.959 69.0965 143.897 63.0731 143.836 62.93C143.775 62.7463 142.796 62.685 139.879 62.685H136.002L135.941 71.4038C135.88 80.878 135.86 81.0005 134.697 82.2665C134.126 82.879 132.779 83.5119 132.004 83.5119C131.025 83.5119 129.76 82.8178 129.27 82.0214C128.373 80.5513 128.23 79.0812 128.23 70.587V62.685H124.231H120.253L120.335 72.3227Z" fill="#0EDC53"/>
</svg>
