<svg width="440" height="100" viewBox="0 0 440 100" fill="none" xmlns="http://www.w3.org/2000/svg">
<path d="M32.9455 55.2044C32.9455 58.5761 33.5906 61.8229 34.8811 64.945C36.1716 67.9004 37.9614 70.5437 40.2509 72.8749C42.5405 75.1643 45.1837 76.9544 48.1808 78.2447C51.2613 79.5351 54.5081 80.1803 57.9216 80.1803C61.2933 80.1803 64.5401 79.5351 67.6622 78.2447C70.6177 76.9544 73.2609 75.1643 75.5921 72.8749C77.8815 70.5437 79.6507 67.9004 80.8994 64.945C82.2315 61.8229 82.8975 58.5761 82.8975 55.2044C82.8975 51.8325 82.2315 48.5857 80.8994 45.4638C79.6507 42.4665 77.8815 39.8233 75.5921 37.5339C73.2609 35.2442 70.6177 33.4544 67.6622 32.1639C64.5401 30.8736 61.2933 30.2282 57.9216 30.2282C54.5081 30.2282 51.2613 30.8736 48.1808 32.1639C45.1837 33.4544 42.5405 35.2442 40.2509 37.5339C37.9614 39.8233 36.1716 42.4665 34.8811 45.4638C33.5906 48.5857 32.9455 51.8325 32.9455 55.2044ZM57.9216 15.2427C63.3329 15.2427 68.5156 16.2834 73.4691 18.3646C78.2562 20.4045 82.5021 23.2557 86.2067 26.919C89.87 30.6238 92.7215 34.8698 94.7611 39.6568C96.8425 44.6104 97.8832 49.7928 97.8832 55.2044C97.8832 60.6157 96.8425 65.7984 94.7611 70.7519C92.7215 75.539 89.87 79.7849 86.2067 83.4898C82.5021 87.1528 78.2562 90.0042 73.4691 92.0439C68.5156 94.1253 63.3329 95.166 57.9216 95.166C52.51 95.166 47.3276 94.1253 42.3738 92.0439C37.5868 90.0042 33.341 87.1528 29.6362 83.4898C25.973 79.7849 23.1215 75.539 21.0819 70.7519C19.0005 65.7984 17.9599 60.6157 17.9599 55.2044C17.9599 49.7928 19.0005 44.6104 21.0819 39.6568C23.1215 34.8698 25.973 30.6238 29.6362 26.919C33.341 23.2557 37.5868 20.4045 42.3738 18.3646C47.3276 16.2834 52.51 15.2427 57.9216 15.2427ZM141.661 80.1803C145.033 80.1803 148.28 79.5351 151.402 78.2447C154.357 76.9544 157 75.1643 159.332 72.8749C161.621 70.5437 163.39 67.9004 164.639 64.945C165.971 61.8229 166.637 58.5761 166.637 55.2044C166.637 51.8325 165.971 48.5857 164.639 45.4638C163.39 42.4665 161.621 39.8233 159.332 37.5339C157 35.2442 154.357 33.4544 151.402 32.1639C148.28 30.8736 145.033 30.2282 141.661 30.2282C138.248 30.2282 135.001 30.8736 131.921 32.1639C128.923 33.4544 126.28 35.2442 123.991 37.5339C121.701 39.8233 119.911 42.4665 118.621 45.4638C117.33 48.5857 116.685 51.8325 116.685 55.2044C116.685 58.5761 117.33 61.8229 118.621 64.945C119.911 67.9004 121.701 70.5437 123.991 72.8749C126.28 75.1643 128.923 76.9544 131.921 78.2447C135.001 79.5351 138.248 80.1803 141.661 80.1803ZM141.661 15.2427C147.072 15.2427 152.255 16.2834 157.209 18.3646C161.996 20.4045 166.242 23.2557 169.947 26.919C173.61 30.6238 176.461 34.8698 178.501 39.6568C180.582 44.6104 181.623 49.7928 181.623 55.2044V92.6684H166.637V86.4243C163.14 89.2133 159.311 91.3572 155.148 92.8557C150.819 94.3958 146.323 95.166 141.661 95.166C136.25 95.166 131.067 94.1253 126.114 92.0439C121.327 90.0042 117.081 87.1528 113.376 83.4898C109.713 79.7849 106.861 75.539 104.821 70.7519C102.74 65.7984 101.7 60.6157 101.7 55.2044C101.7 49.7928 102.74 44.6104 104.821 39.6568C106.861 34.8698 109.713 30.6238 113.376 26.919C117.081 23.2557 121.327 20.4045 126.114 18.3646C131.067 16.2834 136.25 15.2427 141.661 15.2427ZM230.396 30.2282C227.025 30.2282 223.777 30.8736 220.654 32.1639C217.658 33.4544 215.015 35.2442 212.725 37.5339C210.436 39.8649 208.646 42.5081 207.356 45.4638C206.065 48.5857 205.42 51.8325 205.42 55.2044C205.42 58.5761 206.065 61.8229 207.356 64.945C208.646 67.9004 210.436 70.5437 212.725 72.8749C215.015 75.1643 217.658 76.9544 220.654 78.2447C223.777 79.5351 227.025 80.1803 230.396 80.1803C233.768 80.1803 237.014 79.5351 240.136 78.2447C243.092 76.9544 245.735 75.1643 248.067 72.8749C250.356 70.5437 252.125 67.9004 253.374 64.945C254.706 61.8229 255.373 58.5761 255.373 55.2044C255.373 51.8325 254.706 48.5857 253.374 45.4638C252.125 42.5081 250.356 39.8649 248.067 37.5339C245.735 35.2442 243.092 33.4544 240.136 32.1639C237.014 30.8736 233.768 30.2282 230.396 30.2282ZM230.396 15.2427C235.808 15.2427 240.989 16.2834 245.944 18.3646C250.731 20.4045 254.977 23.2557 258.681 26.919C262.344 30.6238 265.196 34.8698 267.236 39.6568C269.316 44.6104 270.358 49.7928 270.358 55.2044C270.358 60.6157 269.316 65.7984 267.236 70.7519C265.196 75.539 262.344 79.7849 258.681 83.4898C254.977 87.1528 250.731 90.0042 245.944 92.0439C240.989 94.1253 235.808 95.166 230.396 95.166C224.985 95.166 219.802 94.1253 214.849 92.0439C210.061 90.0042 205.815 87.1528 202.111 83.4898C198.447 79.7849 195.596 75.539 193.556 70.7519C191.475 65.7984 190.434 60.6157 190.434 55.2044V2.75467H205.42V23.9842C208.916 21.1952 212.746 19.0516 216.91 17.553C221.238 16.0128 225.733 15.2427 230.396 15.2427ZM291.658 2.75467V23.2351L297.713 19.7383L305.207 32.7259L291.658 40.5309V92.6684H276.671V49.2101L270.614 52.7067L263.122 39.7191L276.671 31.9141V2.75467H291.658ZM316.703 85.1756C316.703 87.5899 315.85 89.6505 314.143 91.3572C312.436 93.0637 310.375 93.9171 307.962 93.9171C305.548 93.9171 303.487 93.0637 301.78 91.3572C300.072 89.6505 299.22 87.5899 299.22 85.1756C299.22 82.7613 300.072 80.7007 301.78 78.994C303.487 77.2873 305.548 76.4339 307.962 76.4339C310.375 76.4339 312.436 77.2873 314.143 78.994C315.85 80.7007 316.703 82.7613 316.703 85.1756ZM336.754 2.75467V23.2351L342.811 19.7383L350.303 32.7259L336.754 40.5309V92.6684H321.769V49.2101L315.712 52.7067L308.218 39.7191L321.769 31.9141V2.75467H336.754ZM422.116 21.9861L388.399 80.3676L379.908 95.166L371.353 80.3676L337.636 21.9861L350.435 14.5558L379.908 65.507L409.316 14.5558L422.116 21.9861Z" fill="#0EDC53"/>
</svg>
