<svg width="1967" height="450" viewBox="0 0 1967 450" fill="none" xmlns="http://www.w3.org/2000/svg">
<g clip-path="url(#clip0_263_5)">
<path d="M90.364 374V292.66L148.132 374H220.508L145.144 280.044L211.212 195.384H145.808L90.364 267.76V135.624H33.592V374H90.364ZM280.963 153.884C280.963 134.96 266.023 121.348 244.443 121.348C222.863 121.348 207.923 134.96 207.923 153.884C207.923 172.476 222.863 186.088 244.443 186.088C266.023 186.088 280.963 172.476 280.963 153.884ZM273.327 374V195.384H216.555V374H273.327ZM407.191 318.224C400.883 322.208 391.919 324.532 382.623 324.532C367.019 324.532 359.715 316.564 359.715 299.3V244.852H408.519V195.384H359.715V142.928H302.943V195.384H269.743V244.852H302.943V312.58C302.943 353.416 326.515 377.32 366.687 377.32C382.623 377.32 394.575 374.664 407.191 367.692V318.224ZM515.225 374H561.041V263.776C561.041 218.624 532.157 192.064 483.021 192.064C438.865 192.064 407.989 219.288 404.669 260.788H455.797C457.789 245.184 467.085 236.552 482.689 236.552C498.625 236.552 507.589 245.184 507.589 260.788V269.42C499.953 268.092 490.989 267.428 481.361 267.428C430.233 267.428 402.013 286.352 402.013 321.212C402.013 355.076 426.913 377.32 464.097 377.32C487.005 377.32 502.609 371.012 515.225 356.736V374ZM455.465 319.552C455.465 307.268 465.757 300.96 485.013 300.96C492.317 300.96 498.957 301.624 507.589 303.284V314.572C507.589 329.18 496.301 338.144 477.377 338.144C463.433 338.144 455.465 331.172 455.465 319.552ZM758.107 284.692C758.107 233.564 726.567 192.064 678.427 192.064C657.511 192.064 639.915 200.364 625.307 215.636V195.384H573.183V438.076H629.955V357.4C643.899 370.68 659.835 377.32 678.427 377.32C726.567 377.32 758.107 336.484 758.107 284.692ZM699.011 284.692C699.011 313.244 682.079 326.192 664.815 326.192C647.551 326.192 630.619 313.576 630.619 285.024C630.619 256.804 647.219 243.192 664.815 243.192C682.079 243.192 699.011 256.804 699.011 284.692ZM818.121 374V135.624H760.685V374H818.121ZM936.697 374H982.513V263.776C982.513 218.624 953.629 192.064 904.493 192.064C860.337 192.064 829.461 219.288 826.141 260.788H877.269C879.261 245.184 888.557 236.552 904.161 236.552C920.097 236.552 929.061 245.184 929.061 260.788V269.42C921.425 268.092 912.461 267.428 902.833 267.428C851.705 267.428 823.485 286.352 823.485 321.212C823.485 355.076 848.385 377.32 885.569 377.32C908.477 377.32 924.081 371.012 936.697 356.736V374ZM876.937 319.552C876.937 307.268 887.229 300.96 906.485 300.96C913.789 300.96 920.429 301.624 929.061 303.284V314.572C929.061 329.18 917.773 338.144 898.849 338.144C884.905 338.144 876.937 331.172 876.937 319.552ZM1051.43 291.664C1051.43 252.156 1076.99 249.168 1117.16 253.152V194.056C1088.61 194.056 1060.39 206.008 1046.78 226.924V195.384H994.654V374H1051.43V291.664ZM1195.37 441.396C1250.15 441.396 1284.02 411.848 1284.02 363.708V195.384H1231.89V213.644C1218.28 198.704 1202.01 192.064 1179.44 192.064C1135.61 192.064 1104.4 227.92 1104.4 278.384C1104.4 327.188 1138.27 364.704 1181.76 364.704C1201.02 364.704 1217.95 356.736 1227.24 343.456V364.372C1227.24 385.952 1216.29 397.24 1195.04 397.24C1177.44 397.24 1167.15 388.608 1165.16 372.672H1110.05C1112.04 414.172 1145.9 441.396 1195.37 441.396ZM1161.84 278.716C1161.84 256.14 1174.12 241.532 1193.38 241.532C1213.3 241.532 1226.58 256.14 1226.58 278.384C1226.58 300.296 1213.3 315.236 1193.38 315.236C1174.12 315.236 1161.84 300.96 1161.84 278.716ZM1378.68 376.988C1423.17 376.988 1454.71 354.08 1465.67 313.244H1408.89C1403.91 326.192 1393.29 332.832 1377.35 332.832C1359.09 332.832 1348.47 321.544 1345.48 298.968H1466.66C1476.95 240.204 1437.45 192.064 1378.35 192.064C1325.23 192.064 1286.72 230.908 1286.72 284.36C1286.72 339.804 1323.57 376.988 1378.68 376.988ZM1377.02 233.896C1393.95 233.896 1405.24 245.516 1405.91 263.444H1346.15C1350.13 243.524 1360.09 233.896 1377.02 233.896ZM1528.35 374V135.624H1470.92V374H1528.35ZM1700.71 313.244C1700.71 287.68 1682.45 270.748 1647.93 264.44L1610.08 257.468C1598.79 255.476 1593.15 253.152 1593.15 245.516C1593.15 237.548 1601.78 233.896 1615.06 233.896C1630.66 233.896 1641.62 242.528 1642.95 256.804H1697.39C1694.07 216.964 1661.54 192.064 1614.73 192.064C1567.91 192.064 1538.7 216.3 1538.7 250.828C1538.7 279.712 1558.62 297.64 1589.83 303.284L1625.02 309.592C1637.3 311.916 1643.28 315.236 1643.28 323.204C1643.28 332.5 1631.66 335.488 1618.71 335.488C1599.12 335.488 1585.51 325.86 1585.51 310.92H1531.06C1534.71 352.088 1563.93 377.32 1617.71 377.32C1671.5 377.32 1700.71 352.752 1700.71 313.244ZM1769.3 153.884C1769.3 134.96 1754.36 121.348 1732.78 121.348C1711.2 121.348 1696.26 134.96 1696.26 153.884C1696.26 172.476 1711.2 186.088 1732.78 186.088C1754.36 186.088 1769.3 172.476 1769.3 153.884ZM1761.66 374V195.384H1704.89V374H1761.66ZM1832.44 280.044C1832.44 253.152 1845.06 243.192 1859 243.192C1876.27 243.192 1884.24 255.476 1884.24 278.052V374H1941.01V259.128C1941.01 215.636 1916.11 192.064 1880.92 192.064C1858.34 192.064 1841.74 201.36 1827.8 216.964V195.384H1775.67V374H1832.44V280.044Z" fill="#D41212"/>
<path d="M529.58 132.007C529.58 132.007 494.12 70.7578 428.438 52.2218C362.756 34.0887 313.192 39.7301 287 22L324.475 82.0405C326.49 85.2642 329.713 87.279 333.34 87.6819C359.532 90.9056 467.122 107.83 509.835 156.185C509.835 167.064 518.7 175.929 529.58 175.929C540.46 175.929 549.325 167.064 549.325 156.185C592.038 107.83 699.628 91.3085 725.82 87.6819C729.446 87.279 732.67 85.2642 734.685 82.0405L772.16 22C745.968 39.7301 696.404 33.6858 630.722 52.2218C565.443 70.7578 529.58 132.007 529.58 132.007Z" fill="#084793"/>
</g>
<defs>
<clipPath id="clip0_263_5">
<rect width="1967" height="450" fill="white"/>
</clipPath>
</defs>
</svg>
