<?xml version="1.0" encoding="UTF-8"?>
<svg xmlns="http://www.w3.org/2000/svg" width="1741" height="653" viewBox="0 0 1741 653" fill="none">
  <path d="M44.4666 45.6C44.0666 49.4666 43.4 64.6666 43 79.3333C42.6 93.9999 41.6666 117.333 41 131.333C40.3333 145.2 39.4 166.4 39 178.267L38.3333 200H44.0666H49.6666L52.8666 190.933C66.6 151.867 95.6667 112.267 128.6 87.4666C156.467 66.5333 185.133 54.9333 216.067 51.9999C230.733 50.6666 232.733 51.0666 233.667 55.2C234.067 56.6666 234.2 182.533 234.067 334.667L233.667 611.333L206.6 611.733L179.533 612L179.933 618.4L180.333 624.667L297.4 625.067L414.333 625.333V621.733C414.333 619.6 413.933 616.667 413.533 614.933C412.733 612 412.6 612 386.2 612H359.667V331.333V50.6666L369.4 51.4666C414.6 54.9333 452.733 72.7999 485.667 105.867C508.6 128.933 523.8 152.533 536.6 184.267L542.867 200H548.733H554.6L553.8 186.267C553.4 178.8 552.333 156.8 551.667 137.333C550.867 117.867 549.667 88.9333 549 73.0666C548.2 57.2 547.667 42.9333 547.667 41.4666V38.6666H296.467H45.1333L44.4666 45.6ZM545.933 71.9999C546.733 88.5333 548.067 121.467 548.867 145.333C549.8 169.2 550.733 190.267 551.133 192.267C551.8 195.6 551.533 196 548.067 196C544.733 196 544.067 195.333 542.467 190.133C539.533 180 523.933 149.333 515 136C495.933 107.467 469 82.6666 441.133 68.2666C416.467 55.4666 393.4 49.2 369.667 48.7999L356.333 48.6666L355.933 331.6L355.667 614.667H383H410.333V618.667V622.667H300.6C240.2 622.667 188.867 622.267 186.6 621.867C183.267 621.2 182.333 620.267 182.333 617.867V614.667H209.667H237V331.067V47.6L223.4 48.4C175 51.2 130.6 74.6666 92.6 117.467C77.8 134 57.6666 168.4 51 188.267C48.7333 195.2 48.0666 196 44.8666 196C41.2666 196 41.2666 196 41.6666 187.6C41.9333 183.067 42.6 170 43 158.667C45.1333 99.9999 46.3333 68.5333 47.1333 55.6L47.9333 41.3333L296.2 41.6L544.333 41.9999L545.933 71.9999Z" fill="#F9423A" stroke="#F9423A" stroke-width="5"></path>
  <path d="M39.6666 223.867C39.6666 230.267 40.7333 230.667 58.7333 230.667H71.6666V422.667V614.667H55.6666H39.6666V619.2C39.6666 622.133 40.4666 624 41.9333 624.533C43.5333 625.2 87.6666 625.733 117.4 625.333C118.867 625.333 119.667 624.267 119.667 622.133C119.667 615.067 119 614.667 105 614.667C97.8 614.667 91 614.267 89.8 613.867C87.9333 613.067 87.6666 596 87.6666 433.733C87.6666 306.8 88.0666 254.533 89.1333 254.933C90.4666 255.333 92.3333 258.667 108.867 290C117.933 307.067 124.867 320.133 133 335.333C137.8 344.267 142.867 354 158.333 383.333C162.2 390.667 167.267 400.267 169.667 404.667C174.333 413.467 181.533 426.933 194.2 450.8L202.333 466.4L202.6 497.467C202.867 522.8 203 526 203.8 514.667C204.2 506.933 204.467 438.4 204.333 362.4C204.067 230.933 203.933 223.867 201.667 221.333C199.267 218.667 197.533 218.667 119.4 218.667H39.6666V223.867Z" fill="#F9423A"></path>
  <path d="M477 224C477 226.933 477.133 229.467 477.4 229.467C477.533 229.6 484.6 230 493 230.533L508.333 231.333L508.733 368.933C508.867 444.667 508.467 506.667 507.933 506.667C507.267 506.667 494.733 483.467 479.933 454.933C465.133 426.533 449 395.867 444.2 386.667C439.4 377.467 430.333 360.133 424.067 348C417.8 335.867 410.067 321.2 406.867 315.333C403.8 309.467 399.267 300.133 397.133 294.667C393.133 284.933 393 283.867 392.733 262C392.6 242.533 392.333 244.533 391.667 276.667C389.667 355.867 390.6 542 392.867 535.467C393.933 532.533 396.867 537.6 424.067 589.333C428.867 598.533 435.133 610.133 437.933 615.333L443 624.667L484.067 625.067L525 625.333L525.267 428.4L525.667 231.333L541.4 230.933C556.467 230.533 557 230.533 557 227.6C557 226 556.6 223.333 556.2 221.6L555.4 218.667H516.2H477V224Z" fill="#F9423A"></path>
  <path d="M981.417 333.6C981.017 334.533 980.617 391.333 980.484 459.733L980.084 584H1002.48H1024.75L1024.88 578.267C1024.88 575.2 1025.42 570 1025.82 566.933L1026.75 561.067L1031.42 567.333C1052.62 595.6 1098.75 594.133 1124.62 564.4C1131.68 556.267 1141.15 536.933 1144.22 524C1147.95 508.8 1147.68 475.067 1143.68 460.933C1133.15 423.733 1109.68 404.933 1076.35 407.067C1061.68 408 1050.62 412.8 1040.08 422.8L1032.75 429.733V380.8V332H1007.42C988.351 332 981.817 332.4 981.417 333.6ZM1074.75 450.8C1087.55 456.8 1094.08 472.267 1094.08 496.667C1094.08 528.533 1082.88 545.6 1061.82 545.6C1051.02 545.6 1043.28 540.8 1037.55 530.667L1033.42 523.333V498C1033.42 473.467 1033.55 472.4 1036.88 465.2C1040.35 457.867 1046.08 452.133 1052.75 449.467C1058.48 447.2 1068.35 447.867 1074.75 450.8Z" fill="black"></path>
  <path d="M669.284 342C656.617 344.267 651.151 346.133 640.484 351.6C601.417 371.867 591.684 422 620.751 453.733C630.884 464.8 641.151 471.6 666.217 483.733C696.484 498.533 702.351 505.067 700.351 522.133C699.551 529.733 694.617 536.267 686.484 540.133C680.751 543.067 678.351 543.333 662.751 543.333C644.217 543.2 636.751 541.733 619.284 534.533L610.484 530.933L606.351 549.867C600.351 576.533 600.217 574.4 608.084 577.6C627.951 585.733 655.684 589.333 677.684 586.8C702.751 583.867 719.817 576.667 733.551 563.333C759.817 537.6 760.751 494.133 735.817 467.733C724.484 456 719.017 452.4 687.417 437.6C663.817 426.4 656.751 419.6 656.751 408C656.751 399.733 660.484 393.467 668.084 388.667C674.484 384.8 674.884 384.667 691.951 384.8C707.951 384.8 710.484 385.2 721.417 388.933C728.084 391.2 733.684 392.933 733.817 392.667C734.751 391.867 744.617 351.467 744.084 350.933C743.817 350.667 739.551 348.933 734.617 347.067C716.617 340.667 688.884 338.4 669.284 342Z" fill="black"></path>
  <path d="M1221.55 408C1203.28 410.933 1180.75 419.2 1180.75 423.067C1180.75 424.8 1188.75 453.733 1189.42 454.4C1189.68 454.667 1192.08 453.733 1195.02 452.267C1213.95 442.533 1243.82 440.267 1254.08 447.867C1259.15 451.467 1263.42 458.533 1263.42 463.2V467.467L1247.15 468.933C1229.15 470.667 1210.48 475.467 1200.22 481.067C1189.82 486.667 1178.62 497.733 1174.08 507.2C1166.08 523.333 1165.82 543.6 1173.55 559.2C1177.82 568 1188.88 579.067 1197.02 582.667C1218.35 592 1245.82 587.733 1262.35 572.4L1268.48 566.533L1269.28 570.267C1269.68 572.267 1270.35 576.267 1270.88 578.933L1271.68 584H1295.02H1318.48L1317.42 578.267C1316.88 575.2 1315.95 546.8 1315.42 515.333C1314.62 466.133 1314.08 456.933 1312.08 450.667C1308.62 439.733 1305.15 433.733 1298.35 426.4C1285.82 412.933 1272.35 408 1246.75 407.333C1237.28 407.067 1225.82 407.333 1221.55 408ZM1264.75 516.133C1264.75 533.067 1263.15 537.733 1255.82 543.867C1241.82 555.333 1223.28 550.8 1219.42 534.8C1214.88 515.733 1230.62 502 1257.82 501.467L1264.75 501.333V516.133Z" fill="black"></path>
  <path d="M1436.75 408.533C1426.35 411.333 1417.68 416.4 1409.55 424.4C1405.28 428.667 1401.55 432 1401.42 431.733C1401.15 431.467 1400.48 426.533 1399.82 420.667L1398.75 410L1376.22 409.6L1353.68 409.333L1354.48 432.267C1355.02 444.933 1355.42 484.267 1355.42 519.6V584H1381.42H1407.28L1407.68 526.933L1408.08 470L1411.42 464.133C1413.28 460.933 1417.02 456.4 1419.82 454.133C1424.48 450.4 1425.95 450 1434.08 450C1445.55 450 1449.15 452.4 1454.75 463.333L1458.75 471.333L1459.15 527.6L1459.68 584H1485.68H1511.68L1511.02 521.6C1510.62 467.867 1510.22 458.267 1508.22 451.467C1501.02 427.067 1489.02 413.867 1469.28 408.667C1460.08 406.267 1445.15 406.133 1436.75 408.533Z" fill="black"></path>
  <path d="M1594.75 407.867C1580.62 410.267 1560.08 416.667 1554.88 420.4C1552.75 422 1552.88 422.933 1556.75 437.333C1559.15 445.733 1561.28 453.067 1561.55 453.6C1561.95 454.133 1565.42 453.067 1569.28 451.333C1587.82 443.067 1611.82 440.933 1623.68 446.267C1631.02 449.6 1635.42 455.733 1635.42 462.667V467.467L1619.15 469.067C1575.95 473.2 1550.08 489.733 1542.62 518C1539.82 528 1540.22 542.667 1543.55 552.267C1550.22 572 1564.22 583.6 1585.28 586.933C1603.02 589.6 1623.15 583.867 1635.15 572.4C1638.22 569.467 1640.75 567.2 1640.88 567.2C1641.02 567.333 1641.68 570.933 1642.62 575.333L1644.08 583.333L1667.95 583.733C1690.35 584 1691.68 583.867 1690.62 581.733C1690.08 580.4 1689.15 552.933 1688.75 520.667C1687.95 472 1687.42 460.667 1685.55 454C1679.02 430.4 1666.35 417.067 1643.42 409.733C1636.35 407.467 1604.62 406.267 1594.75 407.867ZM1637.95 514.933C1637.95 522.533 1637.15 530.667 1636.35 533.067C1634.35 538.267 1628.62 544.667 1622.88 547.6C1616.75 550.933 1604.48 550.667 1599.82 547.2C1592.08 541.6 1589.15 529.2 1593.28 519.6C1597.68 508.8 1611.95 502 1631.15 501.467L1638.08 501.333L1637.95 514.933Z" fill="black"></path>
  <path d="M786.484 472.267C787.017 541.333 787.284 543.6 795.417 560C805.684 580.267 827.684 590.667 852.217 586.933C866.084 584.8 875.817 579.733 885.684 570L893.951 561.733L894.751 567.867C895.151 571.2 895.817 576.267 896.217 578.933L897.017 584H919.151H941.417L941.017 498.4C940.884 451.2 940.484 411.867 940.084 410.933C939.684 409.733 933.284 409.333 914.217 409.333H888.884L888.484 466.267C888.084 528.133 887.951 528.933 880.351 537.2C876.617 541.2 867.817 545.333 862.751 545.333C856.351 545.333 848.084 540.8 844.884 535.6C839.017 526 838.084 516.4 838.084 460.933V409.333H811.951H785.951L786.484 472.267Z" fill="black"></path>
</svg>
