<?xml version="1.0" encoding="UTF-8"?> <svg xmlns="http://www.w3.org/2000/svg" width="206" height="68" viewBox="0 0 206 68" fill="none"><path d="M15.458 35.4219C15.458 37.0039 15.7607 38.5273 16.3662 39.9922C16.9717 41.3789 17.8115 42.6191 18.8857 43.7129C19.96 44.7871 21.2002 45.627 22.6064 46.2324C24.0518 46.8379 25.5752 47.1406 27.1768 47.1406C28.7588 47.1406 30.2822 46.8379 31.7471 46.2324C33.1338 45.627 34.374 44.7871 35.4678 43.7129C36.542 42.6191 37.3721 41.3789 37.958 39.9922C38.583 38.5273 38.8955 37.0039 38.8955 35.4219C38.8955 33.8398 38.583 32.3164 37.958 30.8516C37.3721 29.4453 36.542 28.2051 35.4678 27.1309C34.374 26.0566 33.1338 25.2168 31.7471 24.6113C30.2822 24.0059 28.7588 23.7031 27.1768 23.7031C25.5752 23.7031 24.0518 24.0059 22.6064 24.6113C21.2002 25.2168 19.96 26.0566 18.8857 27.1309C17.8115 28.2051 16.9717 29.4453 16.3662 30.8516C15.7607 32.3164 15.458 33.8398 15.458 35.4219ZM27.1768 16.6719C29.7158 16.6719 32.1475 17.1602 34.4717 18.1367C36.7178 19.0938 38.71 20.4316 40.4482 22.1504C42.167 23.8887 43.5049 25.8809 44.4619 28.127C45.4385 30.4512 45.9268 32.8828 45.9268 35.4219C45.9268 37.9609 45.4385 40.3926 44.4619 42.7168C43.5049 44.9629 42.167 46.9551 40.4482 48.6934C38.71 50.4121 36.7178 51.75 34.4717 52.707C32.1475 53.6836 29.7158 54.1719 27.1768 54.1719C24.6377 54.1719 22.2061 53.6836 19.8818 52.707C17.6357 51.75 15.6436 50.4121 13.9053 48.6934C12.1865 46.9551 10.8486 44.9629 9.8916 42.7168C8.91504 40.3926 8.42676 37.9609 8.42676 35.4219C8.42676 32.8828 8.91504 30.4512 9.8916 28.127C10.8486 25.8809 12.1865 23.8887 13.9053 22.1504C15.6436 20.4316 17.6357 19.0938 19.8818 18.1367C22.2061 17.1602 24.6377 16.6719 27.1768 16.6719ZM66.4674 47.1406C68.0494 47.1406 69.5729 46.8379 71.0377 46.2324C72.4244 45.627 73.6646 44.7871 74.7584 43.7129C75.8326 42.6191 76.6627 41.3789 77.2486 39.9922C77.8736 38.5273 78.1861 37.0039 78.1861 35.4219C78.1861 33.8398 77.8736 32.3164 77.2486 30.8516C76.6627 29.4453 75.8326 28.2051 74.7584 27.1309C73.6646 26.0566 72.4244 25.2168 71.0377 24.6113C69.5729 24.0059 68.0494 23.7031 66.4674 23.7031C64.8658 23.7031 63.3424 24.0059 61.8971 24.6113C60.4908 25.2168 59.2506 26.0566 58.1764 27.1309C57.1021 28.2051 56.2623 29.4453 55.6568 30.8516C55.0514 32.3164 54.7486 33.8398 54.7486 35.4219C54.7486 37.0039 55.0514 38.5273 55.6568 39.9922C56.2623 41.3789 57.1021 42.6191 58.1764 43.7129C59.2506 44.7871 60.4908 45.627 61.8971 46.2324C63.3424 46.8379 64.8658 47.1406 66.4674 47.1406ZM66.4674 16.6719C69.0064 16.6719 71.4381 17.1602 73.7623 18.1367C76.0084 19.0938 78.0006 20.4316 79.7389 22.1504C81.4576 23.8887 82.7955 25.8809 83.7525 28.127C84.7291 30.4512 85.2174 32.8828 85.2174 35.4219V53H78.1861V50.0703C76.5455 51.3789 74.7486 52.3848 72.7955 53.0879C70.7643 53.8105 68.6549 54.1719 66.4674 54.1719C63.9283 54.1719 61.4967 53.6836 59.1725 52.707C56.9264 51.75 54.9342 50.4121 53.1959 48.6934C51.4771 46.9551 50.1393 44.9629 49.1822 42.7168C48.2057 40.3926 47.7174 37.9609 47.7174 35.4219C47.7174 32.8828 48.2057 30.4512 49.1822 28.127C50.1393 25.8809 51.4771 23.8887 53.1959 22.1504C54.9342 20.4316 56.9264 19.0938 59.1725 18.1367C61.4967 17.1602 63.9283 16.6719 66.4674 16.6719ZM108.102 23.7031C106.52 23.7031 104.996 24.0059 103.531 24.6113C102.125 25.2168 100.885 26.0566 99.8107 27.1309C98.7365 28.2246 97.8967 29.4648 97.2912 30.8516C96.6857 32.3164 96.383 33.8398 96.383 35.4219C96.383 37.0039 96.6857 38.5273 97.2912 39.9922C97.8967 41.3789 98.7365 42.6191 99.8107 43.7129C100.885 44.7871 102.125 45.627 103.531 46.2324C104.996 46.8379 106.52 47.1406 108.102 47.1406C109.684 47.1406 111.207 46.8379 112.672 46.2324C114.059 45.627 115.299 44.7871 116.393 43.7129C117.467 42.6191 118.297 41.3789 118.883 39.9922C119.508 38.5273 119.821 37.0039 119.821 35.4219C119.821 33.8398 119.508 32.3164 118.883 30.8516C118.297 29.4648 117.467 28.2246 116.393 27.1309C115.299 26.0566 114.059 25.2168 112.672 24.6113C111.207 24.0059 109.684 23.7031 108.102 23.7031ZM108.102 16.6719C110.641 16.6719 113.072 17.1602 115.397 18.1367C117.643 19.0938 119.635 20.4316 121.373 22.1504C123.092 23.8887 124.43 25.8809 125.387 28.127C126.363 30.4512 126.852 32.8828 126.852 35.4219C126.852 37.9609 126.363 40.3926 125.387 42.7168C124.43 44.9629 123.092 46.9551 121.373 48.6934C119.635 50.4121 117.643 51.75 115.397 52.707C113.072 53.6836 110.641 54.1719 108.102 54.1719C105.563 54.1719 103.131 53.6836 100.807 52.707C98.5607 51.75 96.5686 50.4121 94.8303 48.6934C93.1115 46.9551 91.7736 44.9629 90.8166 42.7168C89.84 40.3926 89.3518 37.9609 89.3518 35.4219V10.8125H96.383V20.7734C98.0236 19.4648 99.8205 18.459 101.774 17.7559C103.805 17.0332 105.914 16.6719 108.102 16.6719ZM136.846 10.8125V20.4219L139.687 18.7812L143.203 24.875L136.846 28.5371V53H129.814V32.6094L126.972 34.25L123.457 28.1562L129.814 24.4941V10.8125H136.846ZM148.597 49.4844C148.597 50.6172 148.197 51.584 147.396 52.3848C146.595 53.1855 145.628 53.5859 144.496 53.5859C143.363 53.5859 142.396 53.1855 141.595 52.3848C140.794 51.584 140.394 50.6172 140.394 49.4844C140.394 48.3516 140.794 47.3848 141.595 46.584C142.396 45.7832 143.363 45.3828 144.496 45.3828C145.628 45.3828 146.595 45.7832 147.396 46.584C148.197 47.3848 148.597 48.3516 148.597 49.4844ZM158.005 10.8125V20.4219L160.847 18.7812L164.362 24.875L158.005 28.5371V53H150.974V32.6094L148.132 34.25L144.616 28.1562L150.974 24.4941V10.8125H158.005ZM198.057 19.8359L182.237 47.2285L178.253 54.1719L174.239 47.2285L158.419 19.8359L164.424 16.3496L178.253 40.2559L192.051 16.3496L198.057 19.8359Z" fill="#373F50"></path></svg> 