<?xml version="1.0" encoding="UTF-8"?> <svg xmlns="http://www.w3.org/2000/svg" width="163" height="96" viewBox="0 0 163 96" fill="none"><path fill-rule="evenodd" clip-rule="evenodd" d="M44.8785 40.5952L44.8401 35.1742C44.3207 35.351 43.0897 36.9026 42.7627 37.2955C38.8003 41.9112 31.1447 49.1785 25.0664 48.9428V52.0265C28.548 54.3245 29.529 60.0991 27.2208 62.8881C24.8741 65.7165 24.8356 62.6132 25.1241 71H71.8846L72 25.0393L50.5914 25C49.5527 25.0393 49.6488 24.9411 49.418 25.9035C48.0139 31.5602 45.6672 32.8958 44.8016 35.1546H70.2496L70.2304 42.1862H61.9593L61.94 64.538C59.3433 64.8326 55.9772 64.6755 53.265 64.6559V42.304C51.0338 41.9308 47.5138 42.3629 45.7441 42.2254C44.5515 42.1272 44.917 41.9112 44.8978 40.5756L44.8785 40.5952Z" fill="#FE696A"></path><path fill-rule="evenodd" clip-rule="evenodd" d="M112.65 35.1589H121.701C122.543 36.1807 124.896 41.663 125.642 43.2349C126.905 45.868 128.092 48.7762 129.393 51.252C130.426 50.2106 132.569 44.8462 133.392 43.117C134.654 40.425 135.898 37.5169 137.18 35.1589L146.307 35.2179V64.6335H138.787L138.73 47.6168L132.378 61.745H127.02C125.891 61.4502 121.873 49.798 120.189 47.7937V64.6335L112.612 64.4959L112.65 35.1393V35.1589ZM110.201 25.0197C109.914 26.3558 109.952 69.88 110.201 71H150L149.885 25H110.201V25.0197Z" fill="#4D77FF"></path><path fill-rule="evenodd" clip-rule="evenodd" d="M104.558 64.6253L94.1878 64.6843C93.4082 62.9923 91.8488 60.8674 90.8742 59.3131C90.0555 57.9752 88.1258 54.5911 87.3072 54.0402C86.8198 54.5321 84.3444 57.2669 84.2274 57.7784C83.9155 59.136 84.3249 62.8742 84.1494 64.6647H75.534L75.495 35.1916L81.8689 35.1326C83.3893 35.1326 84.1689 34.6997 84.2664 36.0573C84.4418 38.3986 83.9545 43.3764 84.2859 46.5441C84.9876 46.2096 88.3597 41.9598 89.1784 40.976C90.7572 39.0873 92.6285 36.9624 93.9539 35.1523H103.895L98.1642 41.8221C97.1506 42.9042 96.254 43.9273 95.2209 45.0881C93.6226 46.8982 93.0573 46.6818 94.6556 49.0231L102.121 60.651C102.686 61.5757 104.382 63.8186 104.538 64.645L104.558 64.6253ZM73 70.941L106 71V25.0197L73 25V70.941V70.941Z" fill="#FEA569"></path><path fill-rule="evenodd" clip-rule="evenodd" d="M17.0108 41.2635L28.0508 34.8117C33.5517 31.5664 31.635 33.0239 36.1392 25.309L49 3L19.9817 20.2176L3 49.6391L13.4267 43.5177C13.3692 47.0156 13.4458 47.9484 15.1708 51.116C16.4358 53.4674 13.695 55.4301 18.2758 55.5272C20.0008 59.4721 19.79 59.7053 18.5633 64C20.9208 63.4364 24.2558 62.3288 24.7542 59.7248C25.4442 56.0714 23.4317 53.5839 21.17 52.6512C21.285 51.6601 21.2083 50.8828 20.9783 50.1055C19.5408 49.3281 19.56 49.5613 17.72 49.814C16.915 47.482 16.1675 47.6569 16.1292 44.0618C16.0908 38.6594 20.4033 31.7219 23.7575 27.5244C24.4283 26.6888 24.9267 25.9309 25.6358 25.5616C25.1758 26.5333 24.9842 26.5333 24.3133 27.3689C21.5342 30.7308 17.3942 37.2214 17.0108 41.3023V41.2635Z" fill="#333333"></path><path fill-rule="evenodd" clip-rule="evenodd" d="M19 41.8482C23.9486 46.2861 23.6769 48.5535 29.0913 45.8016C32.8367 43.9024 36.0388 40.9955 38.5228 38.5537C40.968 36.1313 43.9177 32.8368 45.7808 29.1354C47.0034 26.713 47.7408 24.9301 45.839 23.1084C44.7716 22.0813 42.6952 19.6977 41.5696 19C41.2397 19.9302 33.7876 32.6237 33.186 33.2244C32.2933 34.0965 27.5582 36.6546 26.1609 37.4879C25.2488 38.0305 19.718 41.0149 19.0194 41.8482H19Z" fill="#333333"></path><path fill-rule="evenodd" clip-rule="evenodd" d="M125.607 79.0065C126.495 80.5161 129.717 87.7355 130.73 88.2387H133.684L138.497 78.9871V90H143V72L137.443 72.0581L132.031 82.1806L129.222 77.1677C128.457 75.7355 127.094 73.3935 126.619 72H121V89.9806H125.503L125.607 78.9677V79.0065Z" fill="#333333"></path><path fill-rule="evenodd" clip-rule="evenodd" d="M88.6888 75.9172C92.0542 75.9172 96.2325 75.591 96.2136 81.1354C96.2136 86.488 91.8084 86.0851 88.6888 86.1043V75.9172V75.9172ZM84.0189 89.922C87.7813 89.922 92.9049 90.4016 96.0623 88.982C102.755 86.0083 102.585 75.8596 95.9111 72.9052C93.0373 71.6198 87.5166 72.0802 84 72.0802V89.9028L84.0189 89.922Z" fill="#333333"></path><path fill-rule="evenodd" clip-rule="evenodd" d="M56.2 79.4209C57.1687 78.084 58.2324 77.0958 59.2961 75.7783C60.3598 74.4413 61.5184 73.5501 62.4682 72H57.0548C56.314 73.3563 54.9274 74.577 53.8827 75.8751C52.857 77.1733 51.6793 78.3552 50.7106 79.5565L50.6726 72H46V90H50.6916C50.6916 85.9311 50.0458 85.718 52.8 83.2379C53.6737 83.8579 56.124 88.1981 57.0168 89.3025C57.7196 90.1744 56.9788 89.6512 57.8525 90H63L56.238 79.4015L56.2 79.4209Z" fill="#333333"></path><path fill-rule="evenodd" clip-rule="evenodd" d="M118.733 82.905V79.0173H109.846L109.886 75.6933H119.678V72L105 72.1361V90H120V89.689L119.98 86.2095L109.886 86.0929L109.926 82.905H118.733Z" fill="#333333"></path><path fill-rule="evenodd" clip-rule="evenodd" d="M73.0096 77.0516L75.2854 83.1871H70.541L73.0289 77.0516H73.0096ZM67.4937 89.9806C68.4195 89.4774 68.3809 88.1806 69.1524 86.8064H76.7705L77.947 90L83 89.8452L75.6326 72H70.6567L63 89.9806H67.4937Z" fill="#333333"></path><path fill-rule="evenodd" clip-rule="evenodd" d="M33.2799 77.0958L35.6274 83.1798H31.1158L33.2799 77.0958ZM28.2548 90C29.0985 89.4187 29.3369 87.8493 29.7403 86.8224H37.0212L38.14 90H43L35.9392 72H31.2075L24 90H28.2548Z" fill="#333333"></path><path fill-rule="evenodd" clip-rule="evenodd" d="M145 90L150 89.8386V77.0359L145.244 77H145V90Z" fill="#333333"></path><path fill-rule="evenodd" clip-rule="evenodd" d="M145 75.9669L149.106 76L150 75.7025V72.1983L149.106 72H145V75.9669Z" fill="#333333"></path><path fill-rule="evenodd" clip-rule="evenodd" d="M117.76 72.3528V76.2667H109.224L109.189 79.7892H116.936V83.9091C117.322 83.3735 117.269 84.9185 117.269 83.0233V80.675C117.322 78.6562 117.357 80.2836 116.936 79.7686L109.522 79.645V76.4727L117.48 76.3903C117.515 76.3903 117.602 76.3903 117.637 76.3285C117.655 76.2667 117.725 76.2667 117.778 76.2461C118.233 75.1955 117.848 72.6 117.848 72.4764C117.848 72.394 117.795 72.3734 117.778 72.3116C117.006 71.8172 109.172 72.085 108.032 72.085C107.279 72.085 105.28 71.7348 105 72.4558L117.778 72.3116L117.76 72.3528Z" fill="#B8B7B9"></path></svg> 