<svg width="128" height="128" viewBox="0 0 128 128" fill="none" xmlns="http://www.w3.org/2000/svg">
<path d="M9.62499 32.181C-1.40401 48.032 -0.0310111 68.657 8.39399 85.501C8.59399 85.905 8.80399 86.302 9.01099 86.699L9.40499 87.458L9.65099 87.895L10.09 88.681C10.352 89.142 10.62 89.601 10.894 90.06L11.353 90.816C11.657 91.307 11.968 91.792 12.286 92.276L12.684 92.89C13.123 93.545 13.572 94.199 14.036 94.841L14.075 94.891L14.303 95.199C14.704 95.752 15.117 96.298 15.535 96.838L15.999 97.428C16.372 97.897 16.751 98.363 17.137 98.827L17.572 99.347C18.091 99.9594 18.6197 100.563 19.158 101.159L19.191 101.192L19.252 101.26C19.781 101.834 20.3184 102.401 20.864 102.959L21.381 103.48C21.804 103.906 22.234 104.325 22.668 104.742L23.195 105.242C23.775 105.789 24.361 106.325 24.959 106.849L24.987 106.871L25.294 107.133C25.821 107.589 26.357 108.042 26.897 108.486L27.561 109.015C28.002 109.369 28.448 109.717 28.897 110.059L29.611 110.602C30.107 110.967 30.606 111.326 31.11 111.677L31.656 112.064L31.806 112.171C32.284 112.5 32.773 112.817 33.262 113.134L33.892 113.554C34.642 114.028 35.402 114.497 36.171 114.95L36.801 115.305C37.366 115.631 37.935 115.951 38.511 116.264C38.823 116.432 39.143 116.591 39.457 116.752C39.864 116.965 40.268 117.181 40.682 117.388L40.965 117.525L41.466 117.767C42.107 118.073 42.753 118.374 43.406 118.664L43.816 118.848C44.5645 119.175 45.319 119.489 46.079 119.789L46.63 120.006C47.334 120.277 48.048 120.545 48.765 120.797L49.033 120.89C49.82 121.165 50.614 121.42 51.414 121.669L51.989 121.841C52.803 122.086 53.608 122.379 54.447 122.534C107.786 132.261 123.28 90.481 123.28 90.481C110.267 107.434 87.169 111.906 65.284 106.927C64.455 106.74 63.651 106.481 62.842 106.242L62.233 106.057C61.4447 105.815 60.6606 105.56 59.881 105.292L59.558 105.175C58.8628 104.929 58.1714 104.673 57.484 104.406L56.902 104.177C56.15 103.88 55.402 103.57 54.663 103.246L54.216 103.048C53.5831 102.762 52.9533 102.469 52.327 102.169L51.781 101.907C51.29 101.668 50.804 101.414 50.32 101.164C49.996 100.993 49.666 100.832 49.345 100.654C48.7558 100.337 48.172 100.009 47.594 99.672L47.003 99.342C46.2354 98.8889 45.4753 98.4231 44.723 97.945L44.108 97.535C43.5611 97.1843 43.02 96.8245 42.485 96.456L41.963 96.089C41.4478 95.7248 40.9364 95.3551 40.429 94.98L39.75 94.466C39.2838 94.1116 38.8224 93.7509 38.366 93.384L37.749 92.889C37.1677 92.4125 36.593 91.9281 36.025 91.436L35.836 91.277C35.224 90.7369 34.6199 90.1878 34.024 89.63L33.513 89.139C33.072 88.719 32.638 88.296 32.211 87.862L31.701 87.353C31.1591 86.7985 30.6263 86.2351 30.103 85.663L30.024 85.579C29.4725 84.9742 28.9321 84.3595 28.403 83.735L27.979 83.231C27.5837 82.7555 27.1947 82.2748 26.812 81.789L26.385 81.257C25.9275 80.6655 25.4784 80.0674 25.038 79.463C12.888 62.889 8.52199 40.031 18.233 21.259M43.862 18.825C35.885 30.303 36.319 45.669 42.541 57.808C43.5823 59.8486 44.761 61.8162 46.069 63.697C47.264 65.41 48.589 67.448 50.175 68.824C50.7549 69.4592 51.3518 70.0788 51.965 70.682L52.437 71.147C53.0326 71.7276 53.6421 72.2938 54.265 72.845L54.339 72.909L54.357 72.927C55.0538 73.5338 55.7657 74.1229 56.492 74.694L56.977 75.072C57.7073 75.6346 58.4519 76.1785 59.21 76.703L59.275 76.752C59.611 76.984 59.953 77.2 60.294 77.424L60.777 77.743C61.321 78.092 61.872 78.432 62.432 78.758L62.667 78.894C63.15 79.172 63.639 79.446 64.13 79.712L64.651 79.983C64.99 80.16 65.329 80.341 65.674 80.513L65.829 80.583C66.532 80.929 67.241 81.263 67.965 81.578L68.437 81.772C69.016 82.018 69.601 82.258 70.187 82.482L70.937 82.757C71.47 82.955 72.005 83.135 72.544 83.316L73.271 83.549C74.038 83.787 74.796 84.088 75.595 84.221C116.778 91.044 126.286 59.335 126.286 59.335C117.716 71.678 101.118 77.568 83.407 72.97C82.624 72.7641 81.8461 72.5394 81.074 72.296L80.373 72.069C79.8258 71.892 79.282 71.7046 78.742 71.507L78.006 71.233C77.4167 71.0068 76.8313 70.7708 76.25 70.525L75.777 70.325C75.0528 70.0098 74.3366 69.6767 73.629 69.326C73.266 69.149 72.909 68.962 72.551 68.778L71.929 68.458C71.4702 68.2093 71.0158 67.9526 70.566 67.688L70.24 67.503C69.6829 67.1782 69.1325 66.8421 68.589 66.495L68.091 66.163C67.7322 65.931 67.3759 65.6954 67.022 65.456C66.2671 64.9312 65.5249 64.3884 64.796 63.828L64.295 63.433C56.543 57.313 50.397 48.947 47.476 39.462C44.414 29.626 45.074 18.584 50.379 9.622M72.657 8.847C67.955 15.767 67.493 24.361 70.756 32.003C74.197 40.116 81.247 46.479 89.476 49.498C89.815 49.623 90.155 49.735 90.498 49.852L90.949 49.995C91.434 50.147 91.915 50.324 92.416 50.419C115.156 54.813 121.324 38.75 122.965 36.385C117.563 44.164 108.483 46.031 97.342 43.327C96.462 43.114 95.495 42.796 94.647 42.495C93.5576 42.108 92.4892 41.6644 91.446 41.166C89.4667 40.2131 87.5868 39.0661 85.834 37.742C75.865 30.177 69.672 15.748 76.177 3.997" fill="#0868AC"/>
</svg>
