<svg width="128" height="128" viewBox="0 0 128 128" fill="none" xmlns="http://www.w3.org/2000/svg">
<g clip-path="url(#clip0_10_7)">
<path d="M-0.00317383 77.5529V71.466C1.59106 72.584 3.22147 73.4897 4.88825 74.1832C6.55484 74.8769 7.95747 75.2237 9.09635 75.2237C10.2764 75.2237 11.2908 74.9337 12.1397 74.3541C12.9886 73.7743 13.413 73.0809 13.413 72.2733C13.413 71.4451 13.1387 70.7568 12.5901 70.2082C12.0415 69.6595 10.8562 68.8676 9.03434 67.8323C5.39032 65.8034 3.00403 64.0694 1.87568 62.6304C0.747336 61.1916 0.183261 59.6234 0.183261 57.9254C0.183261 55.7309 1.03732 53.9399 2.74525 52.553C4.45337 51.1656 6.65322 50.472 9.3448 50.472C12.1397 50.472 15.0074 51.2589 17.947 52.8322V58.4223C14.5932 56.3934 11.8499 55.3789 9.71747 55.3789C8.62013 55.3789 7.73506 55.6119 7.06207 56.0777C6.38927 56.5434 6.05278 57.1594 6.05278 57.9256C6.05278 58.5881 6.35827 59.2195 6.96905 59.8198C7.57963 60.4204 8.65114 61.1449 10.1832 61.9938L12.2019 63.1428C16.9638 65.8344 19.3447 68.8157 19.3447 72.0869C19.3447 74.4265 18.4284 76.3469 16.5963 77.8479C14.7639 79.3489 12.4089 80.0994 9.53104 80.0994C7.83325 80.0994 6.32189 79.9183 4.99698 79.556C3.67186 79.1937 2.00527 78.526 -0.00317383 77.5529ZM19.8726 55.5653L30.4938 45.1306V51.0311H39.5311V56.1243H30.4936V70.1305C30.4936 73.4017 31.8499 75.0372 34.5622 75.0372C36.5911 75.0372 38.7341 74.3541 40.9906 72.9877V78.2671C38.8168 79.4886 36.4462 80.0994 33.8791 80.0994C31.2908 80.0994 29.1377 79.3437 27.4194 77.8324C26.8808 77.3768 26.4358 76.8644 26.0838 76.295C25.732 75.7257 25.4368 74.9804 25.1987 74.059C24.9606 73.1377 24.8415 71.3831 24.8415 68.7951V56.1243H19.8726V55.5651V55.5653ZM62.5435 51.0311H68.9099L48.6925 94.1679H42.3881L52.1087 73.4845L41.0528 51.0309H47.4813L55.1831 67.1491L62.5435 51.0311ZM70.4565 36.2175H76.1087V79.6023H70.4565V36.2175ZM104.45 65.8137H84.3572C84.5021 68.5466 85.4181 70.7206 87.1056 72.3355C88.793 73.9504 90.972 74.7578 93.6427 74.7578C97.3695 74.7578 100.806 73.5984 103.953 71.2795V76.8076C102.214 77.9669 100.491 78.7952 98.7826 79.2921C97.0745 79.7889 95.0714 80.0374 92.7734 80.0374C89.6262 80.0374 87.0798 79.3851 85.1335 78.0808C83.1873 76.7764 81.6294 75.0219 80.4597 72.8167C79.2898 70.6119 78.7049 68.0601 78.7049 65.1616C78.7049 60.8137 79.9368 57.2784 82.4006 54.5559C84.8644 51.8333 88.0632 50.472 91.9968 50.472C95.7857 50.472 98.8085 51.7971 101.065 54.4471C103.322 57.0974 104.45 60.648 104.45 65.0994V65.8137ZM84.4812 62.4286H98.8603C98.7152 60.172 98.0424 58.4328 96.8415 57.2113C95.6409 55.9897 94.0259 55.3789 91.9968 55.3789C89.9679 55.3789 88.3065 55.9897 87.0124 57.2113C85.7185 58.4328 84.8747 60.172 84.4814 62.4286H84.4812Z" fill="white"/>
<path d="M115.109 66.1176C115.575 67.2212 117.657 71.6041 118.085 72.6794C115.481 77.0428 114.871 78.1751 109.428 85.0917C87.2804 108.278 70.1926 112.024 59.7212 101.193C58.6982 100.087 57.791 98.6508 57 96.8823C57.2228 97.2879 57.5172 97.7349 57.883 98.2233L58.0154 98.3973C58.0378 98.4267 58.0606 98.456 58.0836 98.4856L58.2248 98.6649L58.3717 98.8474L58.5248 99.0335L58.6836 99.2229L58.8485 99.4158L59.0193 99.6121L59.1959 99.8118L59.3787 100.015L59.4723 100.118L59.6639 100.326L59.762 100.432L59.9624 100.645L60.0649 100.753C72.9998 112.592 85.9023 102.435 103.421 82.8099C106.065 79.7009 109.961 74.1368 115.109 66.1176ZM121.874 28.6599C130.071 35.7834 130.071 46.8374 123.922 62.6251C123.451 61.4642 121.375 56.8237 120.855 55.6349C125.696 42.2262 125.808 35.8518 118.846 29.4949C114.84 25.838 111.996 25.6875 106.581 26.5781L106.226 26.6378C106.167 26.6478 106.108 26.6583 106.048 26.6687L105.69 26.7334L105.328 26.8008L105.146 26.8357L100.876 27.6906V27.6827L100.97 27.648C109.54 24.4918 116.899 24.2395 121.874 28.6599Z" fill="url(#paint0_linear_10_7)"/>
<path d="M116.448 51.9928C129.462 76.581 130.284 89.8858 125.949 99.1932C124.387 102.547 120.493 104.865 118.818 105.766C114.613 108.029 105.907 106.902 98.1248 104.618L96.9582 104.12C100.869 105.38 109.367 107.027 113.949 105.766C128.996 101.628 127.206 83.705 112.082 55.5571C96.9582 27.4092 80.4108 19.688 67.3671 24.9952C66.1147 25.5047 65.0227 26.2009 64.0834 27.0635L64.1839 26.9561L64.3855 26.7441L64.4865 26.6396L64.6891 26.4335C66.1439 24.9713 67.6523 23.8301 69.2067 23.3047C81.0023 19.3183 101.252 23.2813 116.448 51.9928Z" fill="url(#paint1_linear_10_7)"/>
</g>
<defs>
<linearGradient id="paint0_linear_10_7" x1="2984.35" y1="2616.57" x2="5569.24" y2="4569.22" gradientUnits="userSpaceOnUse">
<stop stop-color="#5BD3F3"/>
<stop offset="1" stop-color="#5BD3F3"/>
</linearGradient>
<linearGradient id="paint1_linear_10_7" x1="2771.15" y1="4788.63" x2="4511.74" y2="3838.87" gradientUnits="userSpaceOnUse">
<stop stop-color="#D573DE"/>
<stop offset="1" stop-color="#D573DE"/>
</linearGradient>
<clipPath id="clip0_10_7">
<rect width="128" height="128" fill="white"/>
</clipPath>
</defs>
</svg>
