<svg width="128" height="128" viewBox="0 0 128 128" fill="none" xmlns="http://www.w3.org/2000/svg">
<path d="M12.1 102.4H9.8C6.9 102.4 4.6 100.1 4.6 97.2C4.6 94.2 7 91.8 10 91.8H12.1V87.6H9.3C4.2 87.6 0 91.8 0 96.9C0 102.6 4.6 107.2 10.3 107.2H12.1V102.4ZM115.9 102.4H113.6C110.7 102.4 108.4 100.1 108.4 97.2C108.4 94.2 110.8 91.8 113.8 91.8H115.9V87.6H113C107.9 87.6 103.7 91.8 103.7 96.9C103.7 102.6 108.3 107.2 114 107.2H115.8V102.4H115.9ZM22.1 87.6C17.6 87.6 14 92 14 97.4C14 102.8 17.6 107.2 22.1 107.2C26.6 107.2 30.2 102.8 30.2 97.4C30.2 92 26.6 87.6 22.1 87.6ZM22.1 103.5C20.1 103.5 18.6 100.8 18.6 97.5C18.6 94.2 20.2 91.5 22.1 91.5C24.1 91.5 25.6 94.2 25.6 97.5C25.6 100.8 24 103.5 22.1 103.5ZM30.2 107.2L33.3 87.6H39.8L41.7 97.4L44.2 87.6H50.2L53.1 107.2H48.1L46.5 93.9L43.8 107.2H40.4L36.7 94.1L35 107.2H30.2ZM54.2 107.2L57.3 87.6H63.8L65.6 97.4L68.1 87.6H74.2L77.1 107.2H72.1L70.4 93.9L67.7 107.2H64.4L60.6 94.1L59 107.2H54.2ZM77.9 107.2V87.6H88.1V91.4H83V95.6H87.5V99.2H82.4V103H88.1V107.2H77.9ZM117.8 107.2V87.6H128V91.4H122.9V95.6H127.4V99.2H122.3V103H128V107.2H117.8Z" fill="#7E53A4"/>
<path d="M100 98.1C101.6 98.1 103 96.8 103 95.1V93.3C103 90.1 100.4 87.6 97.3 87.6H89.9V107.2H94.5V98L99.5 107.2H104.6L100 98.1ZM96.1 96.4H94.4V91.6H96.3C97.6 91.6 98.6 92.6 98.6 93.9C98.5 95.3 97.4 96.4 96.1 96.4ZM74.4 37.7C72.5 37.5 69 38.5 67.4 46.3C67.4 51.1 68.5 53.9 70.3 54.9C73.6 55.9 77.5 51.5 77.5 46.7C77.6 43.6 77.8 39.5 74.4 37.7ZM100 37.7C98.1 37.5 94.6 38.5 93 46.3C93 51.1 94.1 53.9 95.9 54.9C99.2 55.9 103.1 51.5 103.1 46.7C103.3 43.6 103.4 39.5 100 37.7Z" fill="#7E53A4"/>
<path d="M104 20.8H24.3C17.9 20.8 12.6 26 12.6 32.5V59.9C12.6 66.3 17.8 71.6 24.3 71.6H104C110.4 71.6 115.7 66.4 115.7 59.9V32.4C115.7 26 110.4 20.8 104 20.8ZM48.1 64.2C48.1 64.2 42.6 56.9 41.2 51.4C39.8 45.9 39.6 48.4 39.6 48.4C39.6 48.4 35.2 58.3 30.6 64.6C26 70.9 23.7 61.5 23.7 61.5C22.1 59.6 17.5 31.6 17.5 31.6C20.1 24.5 24.5 30.3 24.5 30.3L29 53.1C29 53.1 35.9 39.1 38.1 35.6C40.4 32 44.3 33 44.6 36.7C44.9 40.4 48.7 50.7 48.7 50.7C49 40 53.4 29.8 54.1 28.1C54.8 26.4 61.9 24.5 60.6 31.3C57.5 38.9 54.4 55 55.2 63.8C53.2 70.5 48.1 64.2 48.1 64.2ZM76.9 60.6C74.8 61.6 67 66.9 61.5 54.9C58 42.8 65.7 33.9 65.7 33.9C65.7 33.9 75.8 25.3 82.7 36.7C88.2 49.2 79 59.6 76.9 60.6ZM102.6 60.6C100.5 61.6 92.7 66.9 87.2 54.9C83.7 42.8 91.4 33.9 91.4 33.9C91.4 33.9 101.5 25.3 108.4 36.7C113.9 49.2 104.7 59.6 102.6 60.6Z" fill="#7E53A4"/>
<path d="M62 71.5L79.9 82L76.2 71.5L65.9 68.6L62 71.5Z" fill="#7E53A4"/>
</svg>
